<svg width="69" height="26" viewBox="0 0 69 26" fill="none" xmlns="http://www.w3.org/2000/svg">
    <g clip-path="url(#clip0_29_898)">
        <path d="M2.52765 4.70676C3.87694 4.70676 4.95096 3.64217 4.95096 2.36458C4.95096 1.06044 3.87702 0.0223999 2.52765 0.0223999C1.20587 0.0223999 0.131897 1.06038 0.131897 2.36458C0.131897 3.6421 1.20583 4.70676 2.52765 4.70676ZM0.572527 20.9153H4.51024V6.17068H0.572527V20.9153Z" fill="#134651"/>
        <path d="M34.0251 6.03872C29.6742 6.03872 26.177 9.44544 26.177 13.6241V25.9735H30.1147V20.1979C31.2437 20.8367 32.5929 21.2093 34.0249 21.2093C38.3482 21.2093 41.8454 17.8026 41.8454 13.624C41.8454 9.44535 38.3482 6.03864 34.0249 6.03864L34.0251 6.03872ZM34.0251 17.4033C31.8496 17.4033 30.1149 15.7 30.1149 13.6241C30.1149 11.5481 31.8498 9.84481 34.0251 9.84481C36.173 9.84481 37.9077 11.5482 37.9077 13.6241C37.9077 15.7001 36.1729 17.4033 34.0251 17.4033Z" fill="#19676B"/>
        <path d="M46.8317 4.70676C48.181 4.70676 49.255 3.64217 49.255 2.36458C49.255 1.06044 48.1811 0.0223999 46.8317 0.0223999C45.5099 0.0223999 44.436 1.06038 44.436 2.36458C44.436 3.6421 45.5099 4.70676 46.8317 4.70676ZM44.8766 20.9153H48.8143V6.17088H44.8766V20.9153Z" fill="#1B7878"/>
        <path d="M61.6679 4.91947V1.11359C57.5375 1.11359 54.1779 4.36067 54.1779 8.35283H51.92V11.8661H54.1779V20.9151H58.1156V11.8661H61.6679V8.35283H58.1156C58.1156 6.46316 59.7128 4.91947 61.6679 4.91947Z" fill="#1E8885"/>
        <path d="M66.5716 4.70676C67.9209 4.70676 68.9949 3.64217 68.9949 2.36458C68.9949 1.06044 67.921 0.0223999 66.5716 0.0223999C65.2498 0.0223999 64.1758 1.06038 64.1758 2.36458C64.1758 3.6421 65.2498 4.70676 66.5716 4.70676ZM64.6165 20.9153H68.5542V6.17068H64.6165V20.9153Z" fill="#219992"/>
        <path d="M15.2339 6.21629C15.0789 6.21547 14.9153 6.21647 14.8703 6.21848C14.8253 6.22055 14.7527 6.22437 14.7089 6.22701C14.6652 6.2297 14.5813 6.23579 14.5226 6.24062C14.4638 6.24541 14.3697 6.25433 14.3135 6.26038C14.2572 6.2665 14.1672 6.27734 14.1135 6.28454C14.0597 6.29175 13.9667 6.30541 13.9067 6.31495C13.8467 6.32445 13.7495 6.3413 13.6908 6.35242C13.632 6.36357 13.5429 6.38141 13.4927 6.39213C13.4425 6.40281 13.3522 6.42341 13.2919 6.43787C13.2316 6.45232 13.1448 6.47424 13.099 6.48654C13.0532 6.49885 12.978 6.5198 12.9317 6.53311C12.8855 6.54643 12.7975 6.57321 12.7362 6.59263C12.675 6.61204 12.5768 6.64469 12.5181 6.66516C12.4594 6.68563 12.353 6.72482 12.2817 6.75224C12.2105 6.77965 12.1092 6.8202 12.0568 6.84234C12.0043 6.86453 11.9031 6.90912 11.832 6.9415C11.7608 6.97383 11.6453 7.02927 11.5752 7.06459C11.505 7.09996 11.4058 7.15162 11.3545 7.17947C11.3033 7.20728 11.2153 7.25674 11.1591 7.28943C11.1028 7.32207 11.0138 7.37545 10.9613 7.408C10.9088 7.44056 10.824 7.49493 10.7727 7.52889C10.7215 7.56281 10.6499 7.61132 10.6136 7.63661C10.5774 7.66196 10.514 7.70739 10.4727 7.73757C10.4315 7.7678 10.3681 7.81529 10.3318 7.84314C10.2956 7.871 10.2352 7.91849 10.1977 7.94867C10.1602 7.97885 10.09 8.03706 10.0417 8.07804C9.99341 8.11903 9.92082 8.1822 9.88037 8.21849C9.83992 8.25477 9.74842 8.34101 9.67706 8.41011C9.6057 8.47922 9.51856 8.56598 9.48342 8.60293L9.41961 8.6701L9.41666 8.73253C9.41495 8.76689 9.41139 8.85822 9.40856 8.93554C9.40542 9.02191 9.40442 9.17948 9.40602 9.34409C9.40752 9.49148 9.41175 9.67036 9.41566 9.74167C9.41957 9.81293 9.42485 9.90092 9.42739 9.93717C9.42993 9.97341 9.43407 10.0288 9.43653 10.0602C9.43899 10.0916 9.44412 10.1509 9.44794 10.192C9.45177 10.233 9.45899 10.3042 9.46399 10.3501C9.46903 10.396 9.47926 10.482 9.4868 10.5412C9.49434 10.6004 9.50766 10.6963 9.5164 10.7543C9.52507 10.8123 9.54144 10.9131 9.55271 10.9783C9.56399 11.0436 9.58344 11.1494 9.59594 11.2134C9.6084 11.2774 9.63085 11.3846 9.64575 11.4515C9.66071 11.5184 9.68516 11.6232 9.70016 11.6843C9.71512 11.7454 9.74084 11.8449 9.75725 11.9053C9.77366 11.9657 9.79834 12.0537 9.81202 12.1008C9.8257 12.1479 9.8533 12.2389 9.87334 12.3029C9.89334 12.3669 9.93393 12.4895 9.96352 12.5753C9.99311 12.661 10.0337 12.7747 10.0536 12.8279C10.0736 12.881 10.1037 12.9591 10.1204 13.0014C10.1371 13.0437 10.1693 13.1227 10.1919 13.1771C10.2145 13.2315 10.254 13.3234 10.2795 13.3814C10.3051 13.4394 10.3462 13.53 10.3708 13.5828C10.4042 13.6544 10.4164 13.6768 10.419 13.6707C10.4209 13.6662 10.4308 13.6191 10.4409 13.5659C10.4512 13.5128 10.4687 13.4267 10.48 13.3748C10.4913 13.3228 10.5117 13.2329 10.5255 13.1749C10.5393 13.1169 10.5628 13.022 10.5778 12.9641C10.5928 12.9061 10.6203 12.805 10.6389 12.7395C10.6574 12.674 10.6891 12.5673 10.7093 12.5023C10.7295 12.4373 10.7733 12.3051 10.8066 12.2084C10.8399 12.1118 10.886 11.9833 10.909 11.9229C10.9321 11.8625 10.976 11.7518 11.0067 11.6769C11.0373 11.602 11.087 11.4853 11.1171 11.4177C11.1471 11.35 11.1968 11.2413 11.2276 11.176C11.2585 11.1108 11.3271 10.9734 11.3801 10.8707C11.4331 10.768 11.5014 10.6395 11.5318 10.5852C11.5622 10.5308 11.6107 10.4458 11.6396 10.3963C11.6685 10.3467 11.7253 10.2528 11.7658 10.1876C11.8064 10.1224 11.8667 10.0275 11.9 9.97673C11.9333 9.92599 12.0008 9.82613 12.0501 9.75488C12.0995 9.68358 12.1708 9.58293 12.2088 9.53117C12.2467 9.47942 12.3037 9.40329 12.3354 9.36204C12.3671 9.32078 12.4165 9.25735 12.4451 9.22111C12.4738 9.18487 12.5289 9.11664 12.5676 9.06955C12.6062 9.02241 12.6771 8.93841 12.725 8.88284C12.773 8.82726 12.8497 8.7405 12.8954 8.69002C12.9413 8.63954 13.0137 8.56143 13.0563 8.51649C13.099 8.47151 13.173 8.3952 13.2208 8.34687C13.2686 8.29855 13.3669 8.20265 13.4392 8.1338C13.5114 8.06492 13.6115 7.97201 13.6614 7.92733C13.7114 7.88261 13.7952 7.80916 13.8477 7.76408C13.9002 7.71901 13.9871 7.64608 14.0408 7.60206C14.0946 7.55804 14.1989 7.47532 14.2726 7.41817C14.3464 7.36101 14.4671 7.2706 14.5408 7.21726C14.6146 7.16393 14.7107 7.09558 14.7544 7.06544C14.7982 7.03526 14.8789 6.98083 14.9339 6.94446C14.9889 6.90804 15.081 6.84877 15.1385 6.81271C15.196 6.77664 15.2737 6.72867 15.3112 6.70604C15.3487 6.68346 15.4234 6.63935 15.4771 6.60807C15.5309 6.57679 15.6168 6.52803 15.668 6.49965C15.7193 6.47127 15.8041 6.42528 15.8566 6.39746C15.9091 6.36961 15.9876 6.32902 16.0311 6.30723C16.0868 6.27929 16.1075 6.2669 16.1015 6.26515C16.0968 6.2637 16.0409 6.25774 15.9771 6.25162C15.9134 6.24555 15.8193 6.23756 15.768 6.23388C15.7168 6.23015 15.6391 6.22504 15.5953 6.22246C15.5516 6.21992 15.3889 6.21714 15.2339 6.21629ZM16.819 6.39413C16.8149 6.39417 16.761 6.41974 16.6993 6.45098C16.6375 6.48221 16.5527 6.52597 16.5107 6.54815C16.4687 6.57038 16.4036 6.60536 16.3661 6.62587C16.3286 6.64644 16.256 6.68702 16.2048 6.71615C16.1535 6.74531 16.0523 6.8048 15.9798 6.84834C15.9073 6.89192 15.7774 6.97319 15.6912 7.02893C15.6049 7.08468 15.4832 7.16565 15.4207 7.20883C15.3582 7.25202 15.2545 7.32565 15.1902 7.3724C15.1259 7.41918 15.0226 7.49655 14.9607 7.5443C14.8987 7.59205 14.805 7.6659 14.7525 7.70829C14.7001 7.75072 14.6223 7.81477 14.5798 7.85062C14.5373 7.88647 14.4709 7.94358 14.4321 7.97749C14.3934 8.01141 14.3116 8.08495 14.2503 8.14087C14.1891 8.1968 14.0694 8.31054 13.9844 8.39358C13.8994 8.4766 13.794 8.58213 13.7501 8.62804C13.7063 8.67395 13.6439 8.74015 13.6114 8.77521C13.579 8.81022 13.5258 8.86856 13.4932 8.9048C13.4607 8.94105 13.4016 9.00827 13.3619 9.05417C13.3222 9.10008 13.2546 9.18013 13.2117 9.23209C13.1688 9.28402 13.1016 9.36705 13.0624 9.41661C13.0232 9.46612 12.9543 9.55552 12.9094 9.61523C12.8644 9.67489 12.8276 9.72466 12.8276 9.7258C12.8276 9.72704 12.8762 9.71213 12.9356 9.69294C12.9949 9.6737 13.0916 9.64343 13.1503 9.62559C13.2091 9.60779 13.2776 9.58724 13.3026 9.57991C13.3276 9.57258 13.3916 9.55456 13.4447 9.53984C13.4978 9.52512 13.6032 9.49749 13.6788 9.47838C13.7544 9.45928 13.8725 9.43076 13.9412 9.41499C14.01 9.39925 14.1143 9.37646 14.173 9.36438C14.2318 9.35226 14.3382 9.33147 14.4094 9.3182C14.4807 9.30495 14.6003 9.28421 14.6753 9.27217C14.7503 9.26009 14.8628 9.24317 14.9253 9.23456C14.9878 9.22599 15.0891 9.21308 15.1503 9.20592C15.2115 9.19875 15.3015 9.18892 15.3503 9.18409C15.399 9.17921 15.4727 9.17223 15.5139 9.16862C15.5552 9.16496 15.6329 9.15899 15.6866 9.1553C15.7404 9.15164 15.8437 9.14563 15.9161 9.14197C15.9886 9.13832 16.1426 9.13337 16.2584 9.13091C16.3999 9.12796 16.5345 9.12796 16.6697 9.13095C16.7803 9.13341 16.9126 9.13742 16.9638 9.13988C17.0151 9.14233 17.0908 9.14634 17.132 9.14879C17.1732 9.15125 17.2469 9.15621 17.2956 9.15982C17.3444 9.16348 17.4375 9.17132 17.5025 9.17735C17.5675 9.18332 17.6646 9.19325 17.7184 9.19941C17.7721 9.20556 17.8539 9.2155 17.9002 9.22146C17.9464 9.22743 18.0443 9.24122 18.1177 9.25217C18.191 9.26307 18.3117 9.2827 18.3859 9.29579C18.46 9.30888 18.5615 9.32769 18.6115 9.33757C18.6615 9.34746 18.7444 9.36446 18.7956 9.3754C18.8469 9.3863 18.9427 9.4079 19.0087 9.42346C19.0746 9.43901 19.1677 9.46172 19.2155 9.47398C19.2633 9.48618 19.3454 9.50807 19.3979 9.52261C19.4504 9.53711 19.5342 9.56088 19.5842 9.57546C19.6342 9.59 19.7406 9.62273 19.8206 9.64812C19.9006 9.67356 20.0243 9.71468 20.0956 9.7395C20.1668 9.76432 20.266 9.79982 20.316 9.81845C20.366 9.83707 20.4489 9.86875 20.5001 9.88887C20.5514 9.90894 20.6463 9.94747 20.711 9.9744C20.7758 10.0014 20.8801 10.0461 20.9428 10.0739C21.0056 10.1017 21.1408 10.1648 21.2433 10.214C21.3458 10.2633 21.4777 10.3287 21.5365 10.3593C21.5952 10.3899 21.702 10.4473 21.7738 10.4869C21.8456 10.5265 21.9489 10.5848 22.0033 10.6165C22.0578 10.6483 22.1486 10.7026 22.2052 10.7373C22.2619 10.7721 22.3093 10.8004 22.3106 10.8004C22.3119 10.8004 22.3012 10.7743 22.2868 10.7422C22.2724 10.7102 22.2435 10.6475 22.2225 10.6027C22.2016 10.558 22.1566 10.4671 22.1225 10.4007C22.0885 10.3342 22.0426 10.2472 22.0206 10.2074C21.9986 10.1675 21.9652 10.1082 21.9465 10.0756C21.9277 10.0429 21.8909 9.98067 21.8646 9.93718C21.8384 9.89369 21.7908 9.81756 21.7589 9.76805C21.727 9.7185 21.6725 9.63648 21.6377 9.58574C21.6029 9.535 21.5472 9.45592 21.5139 9.41001C21.4805 9.3641 21.4203 9.28406 21.3801 9.23218C21.3398 9.18029 21.2784 9.10319 21.2436 9.06084C21.2088 9.01849 21.1546 8.95423 21.1232 8.91798C21.0918 8.88174 21.0447 8.82836 21.0186 8.79936C20.9924 8.77037 20.9432 8.71708 20.9094 8.68097C20.8756 8.64486 20.8036 8.57066 20.7496 8.51609C20.6955 8.46149 20.6059 8.37481 20.5504 8.3235C20.4949 8.27214 20.4078 8.19382 20.3567 8.14936C20.3056 8.1049 20.2316 8.04203 20.1922 8.00961C20.1528 7.97719 20.0735 7.9142 20.016 7.8696C19.9585 7.82501 19.8747 7.7618 19.8297 7.72911C19.7847 7.69642 19.7121 7.64498 19.6683 7.61475C19.6246 7.58457 19.551 7.53506 19.5047 7.50475C19.4585 7.47444 19.3756 7.42203 19.3206 7.38828C19.2656 7.35454 19.1777 7.30222 19.1252 7.27204C19.0727 7.24186 18.9929 7.19731 18.9479 7.17306C18.9029 7.14881 18.8308 7.1109 18.7878 7.08884C18.7447 7.06675 18.6629 7.02632 18.606 6.999C18.549 6.97168 18.4553 6.92832 18.3976 6.90266C18.34 6.87701 18.2459 6.8369 18.1886 6.81348C18.1312 6.79011 18.0505 6.75817 18.0093 6.74253C17.9681 6.7269 17.8995 6.70159 17.857 6.6863C17.8145 6.67102 17.747 6.64759 17.707 6.63424C17.667 6.62073 17.5991 6.59886 17.5566 6.5855C17.5141 6.5721 17.4356 6.54847 17.3817 6.53291C17.3285 6.51732 17.2337 6.49166 17.1732 6.47589C17.1119 6.46012 17.035 6.44101 17.0023 6.4335C16.9696 6.42598 16.9173 6.41398 16.8846 6.40688C16.8527 6.39976 16.8233 6.39395 16.8192 6.39395L16.819 6.39413ZM8.9609 9.21024C8.96047 9.21024 8.93167 9.24732 8.89686 9.29261C8.86208 9.33791 8.81008 9.40758 8.78136 9.44747C8.75258 9.48731 8.70859 9.54961 8.68358 9.58585C8.65858 9.6221 8.61868 9.6814 8.5949 9.71765C8.57113 9.75389 8.53122 9.81614 8.50627 9.85603C8.48132 9.89587 8.44441 9.9562 8.42432 9.99002C8.40423 10.0238 8.37141 10.0802 8.35141 10.1152C8.33141 10.1502 8.29114 10.2231 8.26191 10.2771C8.23268 10.3312 8.19237 10.4082 8.17228 10.4484C8.1522 10.4887 8.11446 10.5667 8.08841 10.6218C8.06237 10.6769 8.02656 10.755 8.00887 10.7953C7.99114 10.8357 7.96437 10.8983 7.94938 10.9346C7.93433 10.9708 7.90511 11.0439 7.88438 11.0971C7.86366 11.1503 7.83229 11.2342 7.8147 11.2838C7.79707 11.3333 7.77216 11.4055 7.7593 11.4442C7.74643 11.4828 7.72298 11.557 7.70711 11.6089C7.6913 11.6608 7.67107 11.7291 7.66221 11.7605C7.65334 11.7919 7.63484 11.8611 7.62112 11.9142C7.6074 11.9674 7.58698 12.0504 7.5758 12.0987C7.56458 12.1471 7.54616 12.2321 7.53489 12.2876C7.52357 12.3432 7.50817 12.4233 7.50058 12.4656C7.49303 12.5078 7.48077 12.582 7.47335 12.6303C7.46594 12.6786 7.45468 12.7587 7.44831 12.8082C7.44194 12.8577 7.43267 12.9368 7.42782 12.9839C7.4229 13.031 7.41673 13.0943 7.41408 13.1245C7.41149 13.1547 7.4063 13.2259 7.40267 13.2827C7.39899 13.3394 7.39363 13.4662 7.39081 13.5643C7.38695 13.6971 7.3869 13.7876 7.39068 13.918C7.3935 14.0144 7.39785 14.1258 7.40035 14.1657C7.40285 14.2055 7.40805 14.2777 7.41189 14.326C7.41572 14.3744 7.42294 14.4524 7.42789 14.4996C7.43289 14.5467 7.44208 14.6248 7.44834 14.6731C7.45462 14.7214 7.46693 14.8074 7.47575 14.8642C7.48457 14.921 7.49975 15.0099 7.50952 15.0619C7.51924 15.1138 7.53561 15.1959 7.54583 15.2442C7.55607 15.2925 7.57161 15.3627 7.58033 15.4002C7.58911 15.4376 7.60943 15.5186 7.62552 15.5803C7.64156 15.6419 7.66402 15.7239 7.67538 15.7626C7.68675 15.8013 7.70842 15.8724 7.7236 15.9208L7.75115 16.0086L7.81096 16.0458C7.84383 16.0662 7.90401 16.1033 7.94473 16.1281C7.98541 16.153 8.06927 16.2027 8.13109 16.2386C8.19286 16.2744 8.28131 16.3246 8.32753 16.35C8.3738 16.3755 8.45562 16.4196 8.50935 16.448C8.56312 16.4765 8.68684 16.5389 8.78435 16.5867C8.88184 16.6346 9.00356 16.6928 9.05479 16.7161C9.10606 16.7395 9.19593 16.7793 9.25456 16.8046C9.31315 16.83 9.40214 16.8676 9.45228 16.8882C9.50241 16.9088 9.59446 16.9454 9.65687 16.9695C9.71927 16.9936 9.81541 17.0297 9.8705 17.0498C9.92558 17.0699 10.0259 17.1051 10.0934 17.128C10.1609 17.151 10.2734 17.1876 10.3434 17.2095C10.4134 17.2313 10.5147 17.262 10.5684 17.2776C10.6221 17.2932 10.7183 17.32 10.782 17.3372C10.8458 17.3544 10.9624 17.3841 11.0411 17.4032C11.1198 17.4224 11.2303 17.4483 11.2865 17.4607C11.3428 17.4731 11.4426 17.494 11.5083 17.5071C11.5741 17.5201 11.6784 17.5398 11.7402 17.5508C11.8019 17.5618 11.9077 17.5795 11.9751 17.5901C12.0426 17.6007 12.1419 17.6153 12.1956 17.6226C12.2494 17.6299 12.3435 17.6418 12.4047 17.6492C12.4659 17.6565 12.566 17.6674 12.627 17.6736C12.688 17.6796 12.7385 17.6841 12.7391 17.6835C12.7398 17.6829 12.7246 17.6695 12.7055 17.6538C12.6864 17.6381 12.6339 17.5936 12.5889 17.555C12.544 17.5163 12.4631 17.4453 12.4093 17.3973C12.3555 17.3492 12.2245 17.2256 12.1181 17.1227C12.0118 17.0198 11.887 16.8959 11.8409 16.8475C11.7948 16.7991 11.7251 16.725 11.6862 16.6828C11.6472 16.6406 11.5822 16.5686 11.5417 16.5229C11.5011 16.4772 11.4344 16.4001 11.3934 16.3516C11.3523 16.3031 11.2898 16.2278 11.2544 16.1843C11.219 16.1408 11.1538 16.0588 11.1096 16.002C11.0654 15.9452 11.0056 15.8671 10.9769 15.8285C10.9481 15.7898 10.9011 15.7256 10.8723 15.6857C10.8435 15.6458 10.7872 15.5658 10.7471 15.5078C10.7071 15.4498 10.6457 15.3589 10.6108 15.3057C10.5758 15.2525 10.5202 15.1658 10.4871 15.113C10.454 15.0601 10.3997 14.9712 10.3664 14.9153C10.3331 14.8594 10.2824 14.7722 10.2537 14.7214C10.2251 14.6707 10.1729 14.5758 10.1377 14.5106C10.1026 14.4453 10.0448 14.3336 10.0092 14.2623C9.97368 14.191 9.92414 14.0893 9.89914 14.0361C9.87414 13.9829 9.82919 13.8841 9.79924 13.8164C9.76928 13.7488 9.72369 13.642 9.69787 13.5792C9.67206 13.5164 9.63528 13.4244 9.61611 13.3749C9.59696 13.3254 9.56229 13.2324 9.53906 13.1684C9.51579 13.1044 9.48648 13.0214 9.47384 12.9839C9.46121 12.9465 9.43639 12.8706 9.41866 12.8154C9.40092 12.7601 9.37434 12.6742 9.35952 12.6243C9.34476 12.5744 9.32321 12.5 9.31166 12.4589C9.30012 12.4179 9.27839 12.3368 9.26334 12.2788C9.2483 12.2208 9.22885 12.1437 9.22017 12.1075C9.21149 12.0713 9.1943 11.9967 9.18198 11.942C9.16968 11.8871 9.1493 11.7907 9.13671 11.7275C9.12413 11.6644 9.10476 11.561 9.09371 11.4977C9.08267 11.4344 9.06544 11.3282 9.0554 11.2618C9.0454 11.1954 9.03094 11.0916 9.02331 11.0312C9.01568 10.9708 9.00435 10.8729 8.99817 10.8137C8.99199 10.7545 8.98281 10.6547 8.97777 10.5919C8.97272 10.5291 8.96555 10.4243 8.96172 10.359C8.95794 10.2938 8.95281 10.1831 8.95031 10.113C8.94781 10.043 8.94576 9.89847 8.94572 9.7919C8.94572 9.68536 8.9479 9.53709 8.95059 9.46242C8.95322 9.38778 8.95681 9.30049 8.95854 9.26846C8.96025 9.23644 8.96131 9.21024 8.9609 9.21024ZM17.6068 9.77858L17.5845 9.7759L17.6756 9.85313C17.7258 9.89561 17.8024 9.96155 17.8457 9.99968C17.889 10.0378 17.9604 10.1016 18.0041 10.1415C18.0479 10.1814 18.1451 10.2733 18.2202 10.3458C18.2954 10.4183 18.3925 10.5142 18.4361 10.5589C18.4798 10.6037 18.5451 10.6719 18.5814 10.7105C18.6177 10.7492 18.67 10.8054 18.6976 10.8357C18.7252 10.8658 18.7775 10.9242 18.8137 10.9653C18.8499 11.0063 18.9122 11.0785 18.9521 11.1256C18.992 11.1727 19.0503 11.2429 19.0816 11.2816C19.1131 11.3202 19.1674 11.3884 19.2025 11.4331C19.2376 11.4778 19.2959 11.5539 19.3321 11.6023C19.3682 11.6506 19.4255 11.7286 19.4595 11.7758C19.4934 11.8229 19.5548 11.9109 19.5959 11.9713C19.637 12.0317 19.6963 12.1206 19.7276 12.169C19.7589 12.2173 19.8065 12.2924 19.8335 12.3359C19.8605 12.3794 19.9137 12.4674 19.9518 12.5314C19.9899 12.5954 20.0446 12.6893 20.0733 12.7401C20.1019 12.7908 20.1551 12.8877 20.1914 12.9553C20.2278 13.023 20.2835 13.1306 20.3153 13.1945C20.3471 13.2583 20.3913 13.3489 20.4136 13.3956C20.4358 13.4424 20.4717 13.5196 20.4932 13.5672C20.5147 13.6149 20.5518 13.6993 20.5756 13.7549C20.5994 13.8105 20.6371 13.9011 20.6592 13.9563C20.6814 14.0115 20.7161 14.1005 20.7363 14.154C20.7566 14.2075 20.7873 14.2908 20.8047 14.3392C20.822 14.3875 20.8514 14.4729 20.87 14.5289C20.8886 14.5849 20.9171 14.6735 20.9334 14.7258C20.9497 14.7781 20.9765 14.8677 20.993 14.9249C21.0095 14.9821 21.0371 15.0823 21.0543 15.1475C21.0715 15.2128 21.0957 15.3086 21.1081 15.3606C21.1205 15.4125 21.1409 15.5015 21.1534 15.5583C21.1659 15.615 21.1854 15.709 21.1968 15.767C21.2081 15.8249 21.2266 15.9258 21.2378 15.991C21.249 16.0563 21.2643 16.1501 21.2718 16.1997C21.2793 16.2492 21.2926 16.3461 21.3014 16.4149C21.3102 16.4838 21.3225 16.5886 21.3287 16.6478C21.3349 16.707 21.3441 16.8068 21.3492 16.8696C21.3542 16.9324 21.3614 17.0372 21.3652 17.1025C21.369 17.1677 21.3741 17.2794 21.3766 17.3507C21.3792 17.4219 21.3812 17.5653 21.3812 17.6692C21.3812 17.7732 21.3791 17.9195 21.3764 17.9943C21.3737 18.0692 21.3702 18.1577 21.3685 18.1909C21.3668 18.2241 21.3657 18.2513 21.3661 18.2513C21.3665 18.2513 21.3923 18.2182 21.4233 18.1777C21.4544 18.1372 21.5064 18.0675 21.5388 18.0228C21.5713 17.9781 21.6162 17.9149 21.6388 17.8823C21.6613 17.8496 21.7044 17.7854 21.7345 17.7395C21.7646 17.6936 21.8137 17.6165 21.8436 17.5682C21.8735 17.5198 21.9226 17.4378 21.9526 17.3858C21.9826 17.3339 22.0296 17.2499 22.057 17.1991C22.0844 17.1484 22.1315 17.0575 22.1618 16.9971C22.192 16.9366 22.2283 16.8625 22.2425 16.8324C22.2567 16.8022 22.2837 16.7429 22.3026 16.7006C22.3214 16.6582 22.3538 16.5831 22.3745 16.5336C22.3953 16.484 22.4287 16.4008 22.4488 16.3486C22.4689 16.2964 22.5029 16.2035 22.5244 16.1421C22.5458 16.0808 22.5755 15.993 22.5903 15.9471C22.605 15.9012 22.6303 15.8181 22.6466 15.7626C22.6628 15.707 22.6893 15.6101 22.7056 15.5473C22.7218 15.4845 22.7443 15.3925 22.7556 15.343C22.7669 15.2935 22.7853 15.2075 22.7965 15.1519C22.8077 15.0964 22.8242 15.0084 22.833 14.9564C22.8418 14.9045 22.8543 14.8264 22.8607 14.7829C22.8672 14.7394 22.8774 14.6633 22.8836 14.6138C22.8897 14.5642 22.8988 14.4822 22.9036 14.4315C22.9086 14.3807 22.9158 14.2967 22.9196 14.2448C22.9234 14.1928 22.9285 14.1058 22.9309 14.0515C22.9334 13.9971 22.9367 13.8953 22.9382 13.8252C22.9397 13.7551 22.9389 13.6237 22.9361 13.5331C22.9333 13.4424 22.928 13.3209 22.9242 13.2629C22.9204 13.2049 22.9143 13.1239 22.9106 13.0828C22.9069 13.0417 22.9008 12.9784 22.8969 12.9422C22.8931 12.906 22.8838 12.8298 22.8763 12.7731C22.8689 12.7163 22.8566 12.6312 22.8492 12.5842C22.8417 12.537 22.8304 12.4698 22.824 12.4348C22.8177 12.3997 22.8044 12.3305 22.7943 12.281C22.7843 12.2315 22.766 12.1468 22.7536 12.0929C22.7413 12.039 22.7208 11.9551 22.7082 11.9066C22.6956 11.8581 22.6743 11.7796 22.6609 11.7323C22.6475 11.685 22.6228 11.6027 22.6062 11.5496C22.5895 11.4964 22.5756 11.4527 22.5752 11.4524C22.5748 11.4522 22.5427 11.4322 22.504 11.4081C22.4652 11.3839 22.3926 11.3396 22.3426 11.3094C22.2926 11.2792 22.2139 11.2327 22.1676 11.2062C22.1214 11.1795 22.0385 11.133 21.9835 11.1027C21.9285 11.0724 21.8375 11.0235 21.7813 10.9941C21.725 10.9647 21.5921 10.8986 21.4858 10.8473C21.3796 10.7959 21.2579 10.7384 21.2154 10.7193C21.1729 10.7004 21.1064 10.6711 21.0676 10.6543C21.0289 10.6375 20.9542 10.606 20.9017 10.5843C20.8492 10.5626 20.7542 10.5245 20.6904 10.4996C20.6267 10.4748 20.5254 10.4367 20.4654 10.4149C20.4054 10.393 20.3103 10.3595 20.254 10.3402C20.1978 10.3209 20.0956 10.2873 20.0268 10.2654C19.9581 10.2436 19.8578 10.2129 19.8041 10.1972C19.7503 10.1815 19.6747 10.1597 19.6359 10.1489C19.5972 10.1379 19.5276 10.1191 19.4814 10.1069C19.4351 10.0948 19.3359 10.07 19.2609 10.0519C19.1859 10.0337 19.0734 10.0078 19.0109 9.99422C18.9484 9.98065 18.8676 9.96369 18.8314 9.95653C18.7951 9.94936 18.7133 9.93385 18.6495 9.92203C18.5858 9.91026 18.4784 9.89164 18.4109 9.88066C18.3434 9.86971 18.2463 9.85482 18.195 9.84757C18.1438 9.84036 18.063 9.82949 18.0155 9.82341C17.968 9.81734 17.8841 9.80747 17.8291 9.80145C17.7741 9.79537 17.7066 9.7884 17.6791 9.7859C17.6516 9.7834 17.619 9.78007 17.6068 9.77858ZM19.9109 13.7842C19.91 13.7833 19.9083 13.7863 19.9069 13.7907C19.9056 13.7951 19.8961 13.8422 19.8858 13.8954C19.8755 13.9486 19.858 14.0345 19.8467 14.0865C19.8355 14.1384 19.815 14.2284 19.8013 14.2864C19.7876 14.3444 19.7592 14.4571 19.7382 14.5368C19.7172 14.6165 19.6836 14.7373 19.6636 14.8052C19.6436 14.873 19.6098 14.9828 19.5886 15.049C19.5673 15.1152 19.5306 15.2248 19.5069 15.2924C19.4832 15.3601 19.4455 15.4638 19.4231 15.5231C19.4007 15.5822 19.3645 15.6752 19.3426 15.7295C19.3207 15.7839 19.2796 15.8822 19.2513 15.9481C19.2229 16.014 19.1803 16.11 19.1567 16.1615C19.133 16.2131 19.0908 16.3025 19.0629 16.3603C19.035 16.4181 18.9756 16.5356 18.931 16.6214C18.8864 16.7072 18.8251 16.8218 18.7948 16.8762C18.7645 16.9305 18.716 17.0155 18.6871 17.0651C18.6582 17.1146 18.6014 17.2085 18.5609 17.2737C18.5204 17.339 18.4548 17.4418 18.4151 17.5022C18.3755 17.5626 18.308 17.6624 18.2653 17.724C18.2225 17.7856 18.1571 17.8776 18.12 17.9283C18.0828 17.979 18.0238 18.0581 17.9889 18.104C17.9539 18.1499 17.8946 18.226 17.857 18.2732C17.8195 18.3203 17.76 18.3934 17.725 18.4357C17.69 18.478 17.6261 18.5533 17.5832 18.6031C17.5402 18.6528 17.4694 18.7329 17.4259 18.781C17.3824 18.8291 17.3225 18.8941 17.2929 18.9256C17.2633 18.957 17.1966 19.0261 17.1448 19.0793C17.093 19.1325 16.9802 19.2432 16.8944 19.3254C16.8085 19.4076 16.6952 19.5132 16.6427 19.5601C16.5903 19.6069 16.4972 19.6878 16.4359 19.7397C16.3747 19.7917 16.2775 19.8721 16.22 19.9185C16.1625 19.9648 16.0695 20.0379 16.0132 20.0809C15.957 20.1239 15.8557 20.1989 15.7882 20.2478C15.7207 20.2966 15.6297 20.3612 15.586 20.3913C15.5423 20.4214 15.4614 20.4759 15.4064 20.5124C15.3514 20.5488 15.2625 20.6062 15.2087 20.6398C15.155 20.6735 15.0732 20.7238 15.0269 20.7516C14.9807 20.7795 14.906 20.8236 14.861 20.8497C14.816 20.8757 14.7281 20.9252 14.6656 20.9596C14.6031 20.9941 14.5202 21.039 14.4815 21.0594C14.4427 21.0799 14.3686 21.1179 14.3168 21.144C14.2649 21.17 14.2235 21.1927 14.2246 21.1945C14.2257 21.1962 14.2405 21.199 14.2575 21.2005C14.2744 21.202 14.3169 21.2063 14.3519 21.2098C14.3869 21.2134 14.4544 21.2193 14.5019 21.2229C14.5494 21.2266 14.619 21.2315 14.6565 21.2339C14.694 21.2363 14.783 21.2405 14.8542 21.2433C14.9365 21.2466 15.0715 21.2475 15.2246 21.2459C15.3571 21.2445 15.5003 21.2413 15.5428 21.2389C15.5853 21.2364 15.6518 21.2323 15.6905 21.2297C15.7293 21.2271 15.805 21.221 15.8587 21.2162C15.9125 21.2114 16.0004 21.2025 16.0541 21.1965C16.1079 21.1903 16.1948 21.1795 16.2473 21.1723C16.2998 21.165 16.3962 21.1504 16.4615 21.1396C16.5268 21.1288 16.6219 21.112 16.6729 21.1021C16.7238 21.0923 16.8062 21.0754 16.8559 21.0646C16.9057 21.0538 16.9875 21.035 17.0378 21.0228C17.088 21.0107 17.1669 20.9908 17.2132 20.9786C17.2595 20.9666 17.3505 20.9411 17.4155 20.9221C17.4805 20.9031 17.5879 20.8699 17.6541 20.8483C17.7203 20.8267 17.8267 20.7902 17.8905 20.7671C17.9542 20.744 18.0534 20.7064 18.1109 20.6836C18.1684 20.6608 18.2594 20.6234 18.3132 20.6005C18.3669 20.5775 18.4406 20.5453 18.4768 20.5289C18.5131 20.5124 18.6041 20.469 18.6791 20.4323C18.7541 20.3956 18.8482 20.3482 18.8882 20.327C18.9282 20.3057 18.9966 20.2686 19.0401 20.2445C19.0838 20.2203 19.1533 20.1808 19.1947 20.1566C19.2361 20.1324 19.3099 20.0879 19.3586 20.0578C19.4074 20.0276 19.482 19.9801 19.5245 19.9522C19.567 19.9243 19.6376 19.8767 19.6813 19.8466C19.7251 19.8164 19.7977 19.7649 19.8427 19.732C19.8877 19.6993 19.9695 19.6376 20.0245 19.595C20.0795 19.5524 20.1633 19.4854 20.2108 19.446C20.2583 19.4066 20.3278 19.3475 20.3652 19.3147C20.4026 19.2819 20.4732 19.2183 20.522 19.1733C20.5709 19.1283 20.6487 19.0542 20.6949 19.0085C20.7412 18.9629 20.8078 18.8953 20.8431 18.8584L20.9071 18.7912L20.91 18.7288C20.9115 18.6944 20.9153 18.604 20.9181 18.528C20.9214 18.4411 20.9223 18.2889 20.9206 18.1194C20.9191 17.9708 20.9159 17.8097 20.9134 17.7614C20.9108 17.713 20.9065 17.6389 20.9039 17.5966C20.9013 17.5543 20.896 17.4792 20.8923 17.4297C20.8885 17.3801 20.8814 17.2981 20.8766 17.2474C20.8717 17.1966 20.8637 17.1195 20.8588 17.076C20.8538 17.0325 20.8455 16.9633 20.8403 16.9223C20.8351 16.8812 20.8228 16.7932 20.813 16.7268C20.8031 16.6603 20.7859 16.5526 20.7747 16.4873C20.7635 16.4221 20.7449 16.3203 20.7335 16.2611C20.722 16.2019 20.7006 16.0991 20.6859 16.0327C20.6711 15.9662 20.6477 15.8644 20.6338 15.8064C20.6199 15.7484 20.5933 15.6446 20.5747 15.5758C20.5561 15.5069 20.5294 15.411 20.5154 15.3627C20.5013 15.3144 20.4734 15.2224 20.4534 15.1584C20.4334 15.0944 20.3928 14.9718 20.3632 14.886C20.3336 14.8002 20.2931 14.6866 20.2731 14.6334C20.2531 14.5803 20.223 14.5022 20.2063 14.4599C20.1896 14.4176 20.1574 14.3385 20.1348 14.2842C20.1123 14.2298 20.0697 14.131 20.0402 14.0645C20.0108 13.9981 19.97 13.9081 19.9496 13.8646C19.9291 13.8212 19.9117 13.7849 19.9109 13.7842ZM8.00157 16.661C8.0005 16.661 7.99965 16.6618 7.99965 16.663C7.99965 16.6641 8.0132 16.6953 8.02974 16.7322C8.04628 16.7692 8.07719 16.836 8.09846 16.8807C8.11968 16.9254 8.17046 17.0262 8.21128 17.1047C8.25209 17.1832 8.30728 17.286 8.33391 17.3332C8.36055 17.3803 8.408 17.4613 8.43932 17.5133C8.47063 17.5652 8.523 17.6493 8.55564 17.7C8.58832 17.7507 8.65204 17.8456 8.69732 17.9109C8.74259 17.9761 8.8069 18.066 8.84027 18.1108C8.87367 18.1554 8.92653 18.2246 8.95776 18.2645C8.98899 18.3044 9.04981 18.3795 9.0929 18.4314C9.13594 18.4834 9.20539 18.5644 9.24717 18.6116C9.28898 18.6587 9.35926 18.7358 9.40334 18.7829C9.44748 18.83 9.54492 18.9286 9.61997 19.0019C9.69501 19.0753 9.79528 19.1704 9.84277 19.2133C9.89027 19.2562 9.95777 19.3158 9.99277 19.3458C10.0278 19.3757 10.084 19.4231 10.1178 19.451C10.1515 19.4789 10.217 19.5313 10.2632 19.5674C10.3095 19.6036 10.3821 19.659 10.4246 19.6907C10.4671 19.7223 10.5295 19.7676 10.5632 19.7914C10.597 19.8153 10.6563 19.8563 10.695 19.8827C10.7338 19.9091 10.8125 19.9608 10.87 19.9975C10.9275 20.0342 11.013 20.0875 11.06 20.1157C11.107 20.1439 11.1869 20.1904 11.2374 20.2189C11.288 20.2474 11.3772 20.296 11.4357 20.327C11.4942 20.3579 11.5975 20.4102 11.6651 20.4431C11.7328 20.4761 11.8321 20.5225 11.8858 20.5464C11.9396 20.5703 12.0235 20.6066 12.0722 20.627C12.121 20.6474 12.211 20.6835 12.2722 20.7071C12.3335 20.7307 12.4263 20.7653 12.4785 20.7838C12.5308 20.8024 12.6095 20.8294 12.6535 20.8438C12.6976 20.8582 12.7755 20.8826 12.8268 20.8981C12.878 20.9135 12.9523 20.9352 12.992 20.9462C13.0316 20.9573 13.1063 20.9771 13.1579 20.9905C13.2095 21.0038 13.2993 21.0255 13.3574 21.0387C13.4155 21.052 13.4707 21.064 13.4802 21.0655L13.4973 21.0681L13.6131 21.0102C13.6769 20.9783 13.7444 20.9442 13.7631 20.9345C13.7819 20.9247 13.8269 20.9009 13.8631 20.8816C13.8994 20.8623 13.9669 20.8257 14.0131 20.8003C14.0594 20.7749 14.1483 20.7244 14.2108 20.6882C14.2733 20.652 14.3715 20.5936 14.429 20.5584C14.4865 20.5232 14.5918 20.4566 14.6631 20.4105C14.7343 20.3643 14.8317 20.2998 14.8795 20.2671C14.9272 20.2343 15.0033 20.1813 15.0484 20.1493C15.0936 20.1173 15.1724 20.0599 15.2235 20.0218C15.2746 19.9838 15.353 19.9243 15.3977 19.8896C15.4424 19.855 15.5025 19.8079 15.5312 19.7849C15.56 19.7619 15.6111 19.7204 15.6448 19.6926C15.6786 19.6648 15.7307 19.6213 15.7607 19.596C15.7907 19.5706 15.8491 19.5202 15.8903 19.4841C15.9316 19.448 16.0144 19.3735 16.0744 19.3186C16.1344 19.2637 16.2459 19.1578 16.3222 19.0832C16.3984 19.0087 16.5061 18.9002 16.5613 18.8422C16.6167 18.7842 16.6961 18.6992 16.738 18.6533C16.7799 18.6074 16.8444 18.5352 16.8814 18.493C16.9183 18.4507 16.9727 18.3874 17.0021 18.3524C17.0316 18.3173 17.0887 18.2481 17.129 18.1986C17.1693 18.1491 17.2351 18.066 17.2753 18.0141C17.3154 17.9622 17.379 17.8782 17.4165 17.8274C17.4541 17.7767 17.4843 17.7346 17.4837 17.734C17.483 17.7334 17.4684 17.738 17.4511 17.7443C17.4339 17.7506 17.3625 17.7744 17.2925 17.7973C17.2225 17.8202 17.1161 17.8537 17.0561 17.8719C16.9961 17.8901 16.8827 17.9227 16.804 17.9443C16.7253 17.9659 16.6005 17.9982 16.5267 18.0162C16.4529 18.0341 16.3527 18.0577 16.3039 18.0685C16.2552 18.0794 16.1713 18.0972 16.1175 18.108C16.0638 18.119 15.9709 18.137 15.9111 18.148C15.8513 18.1591 15.748 18.1769 15.6816 18.1876C15.6151 18.1983 15.5117 18.214 15.4517 18.2224C15.3917 18.2308 15.3017 18.2427 15.2517 18.2488C15.2017 18.2549 15.1137 18.2647 15.0562 18.2708C14.9987 18.2768 14.9057 18.2857 14.8494 18.2906C14.7932 18.2954 14.6858 18.3034 14.6108 18.3081C14.5358 18.313 14.4294 18.3189 14.3744 18.3215C14.3194 18.3241 14.1783 18.3281 14.0608 18.3305C13.9183 18.3334 13.779 18.3334 13.6426 18.3305C13.5301 18.328 13.3778 18.323 13.304 18.3194C13.2303 18.3157 13.128 18.3097 13.0767 18.3061C13.0255 18.3025 12.9375 18.2956 12.8813 18.2907C12.8251 18.2858 12.7228 18.2758 12.654 18.2685C12.5853 18.2612 12.4851 18.2495 12.4313 18.2425C12.3776 18.2355 12.2917 18.2237 12.2404 18.2163C12.1891 18.2088 12.1104 18.1968 12.0654 18.1895C12.0204 18.1823 11.9611 18.1724 11.9336 18.1675C11.9061 18.1627 11.8369 18.1499 11.7798 18.139C11.7227 18.1282 11.6337 18.1106 11.5821 18.0999C11.5304 18.0892 11.4524 18.0724 11.4086 18.0625C11.3649 18.0526 11.2807 18.0328 11.2217 18.0185C11.1627 18.0042 11.0798 17.9835 11.0377 17.9723C10.9954 17.9612 10.9149 17.9392 10.8586 17.9235C10.8024 17.9078 10.7308 17.8873 10.6995 17.878C10.6683 17.8687 10.5977 17.8472 10.5427 17.8302C10.4877 17.8131 10.4049 17.7865 10.3586 17.771C10.3124 17.7554 10.2419 17.7314 10.2019 17.7176C10.162 17.7038 10.0761 17.6728 10.011 17.6487C9.94597 17.6246 9.84365 17.5854 9.78366 17.5616C9.72366 17.5379 9.64389 17.5057 9.60639 17.4901C9.56889 17.4745 9.49935 17.4449 9.45185 17.4243C9.40435 17.4037 9.32773 17.3697 9.2815 17.3486C9.23532 17.3276 9.13 17.2777 9.04741 17.2378C8.96487 17.1979 8.86255 17.1474 8.82006 17.1256C8.77756 17.1038 8.70392 17.0652 8.65643 17.0397C8.60893 17.0143 8.54347 16.9787 8.51098 16.9606C8.47848 16.9425 8.41712 16.9078 8.37462 16.8836C8.33212 16.8593 8.26258 16.8188 8.22008 16.7935C8.17758 16.7682 8.11145 16.7281 8.07309 16.7043C8.03477 16.6805 8.00262 16.661 8.00157 16.661Z" fill="#15565E"/>
    </g>
    <defs>
        <clipPath id="clip0_29_898">
            <rect width="69" height="26" fill="white"/>
        </clipPath>
    </defs>
</svg>
